<?xml version="1.0" standalone="no"?>
<!DOCTYPE svg PUBLIC "-//W3C//DTD SVG 20010904//EN"
 "http://www.w3.org/TR/2001/REC-SVG-20010904/DTD/svg10.dtd">
<svg version="1.0" xmlns="http://www.w3.org/2000/svg"
 width="256.000000pt" height="256.000000pt" viewBox="0 0 256.000000 256.000000"
 preserveAspectRatio="xMidYMid meet">
<metadata>
Created by potrace 1.11, written by Peter Selinger 2001-2013
</metadata>
<g transform="translate(0.000000,256.000000) scale(0.100000,-0.100000)"
fill="#000000" stroke="none">
<path d="M1179 2055 c-2 -2 -20 -6 -39 -9 -146 -24 -289 -103 -407 -226 -52
-54 -115 -144 -140 -202 -11 -25 -17 -28 -62 -28 -64 0 -136 -24 -183 -61 -20
-16 -39 -29 -42 -29 -3 0 -6 60 -6 134 0 110 3 136 16 147 47 39 35 121 -22
145 -84 35 -154 -66 -94 -136 11 -13 20 -32 21 -44 0 -12 2 -138 2 -281 2
-250 3 -262 26 -312 45 -101 149 -171 262 -177 68 -4 67 -3 104 -71 15 -27 43
-71 62 -97 36 -49 170 -178 186 -178 5 0 20 -9 33 -19 28 -22 155 -77 199 -86
131 -27 261 -25 373 5 81 22 209 81 242 112 10 10 22 18 26 18 3 0 32 26 63
58 56 57 119 142 156 215 12 23 27 37 40 38 166 6 264 68 321 204 14 34 16 80
15 317 -2 235 0 279 13 284 21 8 39 60 31 91 -16 67 -97 88 -142 37 -30 -33
-30 -83 -1 -114 20 -22 22 -34 23 -144 1 -67 -1 -126 -3 -133 -3 -8 -16 -3
-40 16 -52 40 -113 61 -180 61 l-58 0 -28 56 c-94 185 -276 333 -481 390 -52
14 -276 29 -286 19z"/>
</g>
</svg>
