<?xml version="1.0" standalone="no"?>
<!DOCTYPE svg PUBLIC "-//W3C//DTD SVG 20010904//EN"
 "http://www.w3.org/TR/2001/REC-SVG-20010904/DTD/svg10.dtd">
<svg version="1.0" xmlns="http://www.w3.org/2000/svg"
 width="260.000000pt" height="260.000000pt" viewBox="0 0 260.000000 260.000000"
 preserveAspectRatio="xMidYMid meet">
<metadata>
Created by potrace 1.11, written by Peter Selinger 2001-2013
</metadata>
<g transform="translate(0.000000,260.000000) scale(0.100000,-0.100000)"
fill="#000000" stroke="none">
<path d="M1441 2404 c-27 -19 -60 -88 -61 -125 0 -14 -11 -58 -25 -98 -23 -70
-24 -81 -18 -228 6 -140 8 -155 27 -169 25 -17 70 -18 84 -1 5 6 13 35 17 62
21 161 28 207 42 267 l15 68 19 -24 c10 -13 19 -29 19 -35 0 -17 79 -162 109
-199 14 -19 35 -48 46 -66 11 -17 44 -62 74 -99 77 -95 112 -92 126 11 7 51 5
55 -36 115 -113 163 -189 280 -189 292 0 30 -86 172 -124 207 -46 42 -86 49
-125 22z"/>
<path d="M567 2380 c-18 -14 -34 -48 -56 -118 -17 -53 -31 -106 -31 -118 0
-29 -33 -121 -63 -174 -14 -25 -31 -73 -38 -107 -13 -63 -13 -66 21 -133 4 -8
20 -15 35 -15 24 0 34 9 58 50 17 28 38 77 47 110 9 33 19 67 23 75 3 8 13 49
22 90 9 41 21 86 27 100 21 53 34 75 43 73 4 0 28 -39 53 -85 24 -45 57 -102
73 -126 16 -24 29 -46 29 -51 0 -16 44 -98 73 -133 47 -58 87 -50 102 20 7 33
-27 124 -107 287 -16 33 -41 88 -54 123 -44 118 -84 152 -177 152 -39 0 -61
-6 -80 -20z"/>
<path d="M405 1013 c-41 -10 -55 -33 -55 -93 0 -80 33 -136 144 -246 104 -104
268 -228 312 -237 16 -3 49 -11 74 -17 100 -25 203 -32 290 -20 82 11 205 45
225 62 5 4 17 8 27 8 11 0 38 9 60 20 23 11 46 20 51 20 17 0 145 90 174 123
15 17 47 40 70 51 51 22 77 49 98 98 18 44 20 129 3 146 -7 7 -38 12 -69 12
l-58 0 -61 -79 c-52 -67 -75 -88 -153 -134 -95 -57 -159 -87 -184 -87 -7 0
-56 -20 -107 -45 l-93 -44 -94 8 c-82 7 -102 13 -156 45 -34 20 -88 60 -120
88 -94 85 -252 250 -279 291 -25 37 -44 43 -99 30z"/>
</g>
</svg>
