<?xml version="1.0" standalone="no"?>
<!DOCTYPE svg PUBLIC "-//W3C//DTD SVG 20010904//EN"
 "http://www.w3.org/TR/2001/REC-SVG-20010904/DTD/svg10.dtd">
<svg version="1.0" xmlns="http://www.w3.org/2000/svg"
 width="1435.000000pt" height="1435.000000pt" viewBox="0 0 1435.000000 1435.000000"
 preserveAspectRatio="xMidYMid meet">
<metadata>
Created by potrace 1.11, written by Peter Selinger 2001-2013
</metadata>
<g transform="translate(0.000000,1435.000000) scale(0.100000,-0.100000)"
fill="#000000" stroke="none">
<path d="M6832 13299 c-428 -23 -883 -98 -1274 -210 -312 -89 -592 -185 -743
-254 -38 -18 -104 -47 -145 -65 -210 -91 -561 -280 -754 -404 -48 -31 -89 -56
-92 -56 -10 0 -191 -127 -329 -230 -902 -677 -1603 -1598 -2019 -2653 -73
-184 -178 -501 -201 -605 -2 -9 -24 -96 -48 -192 -72 -282 -122 -585 -153
-920 -24 -255 -24 -785 0 -1040 53 -577 183 -1144 377 -1651 27 -71 53 -138
58 -147 5 -9 23 -53 41 -97 181 -441 504 -980 831 -1390 277 -347 669 -742
949 -955 316 -241 486 -358 730 -505 175 -104 592 -312 785 -390 77 -31 154
-63 172 -71 18 -8 126 -46 240 -84 672 -222 1432 -328 2153 -300 457 18 790
65 1238 175 1640 405 3043 1480 3871 2967 72 130 110 205 237 475 206 435 392
1084 473 1648 70 486 76 1075 15 1575 -49 403 -178 950 -314 1330 -631 1758
-2020 3126 -3787 3731 -737 252 -1528 361 -2311 318z m-2661 -2215 c6 -8 32
-19 56 -26 l44 -11 -53 -21 c-48 -19 -55 -26 -74 -74 l-21 -53 -11 44 c-13 52
-24 62 -89 87 l-48 18 38 7 c54 10 85 39 99 92 l11 45 18 -46 c10 -26 23 -54
30 -62z m3334 -295 c981 -92 1894 -618 2492 -1436 371 -508 596 -1084 680
-1738 25 -197 25 -662 0 -860 -81 -636 -301 -1207 -657 -1705 -489 -683 -1190
-1168 -1989 -1376 -498 -129 -1095 -140 -1601 -27 -1196 265 -2179 1153 -2585
2333 -291 847 -265 1775 71 2604 95 233 275 557 416 749 229 313 532 616 818
818 704 498 1512 717 2355 638z m-5064 -567 c70 -34 122 -84 160 -154 33 -60
34 -67 34 -168 0 -101 -1 -108 -34 -168 -63 -116 -156 -175 -286 -180 -64 -3
-92 1 -138 18 -69 26 -152 103 -185 171 -47 98 -47 220 0 318 31 65 116 145
180 170 73 29 203 26 269 -7z m9739 2 c162 -75 244 -255 194 -424 -9 -29 -23
-65 -32 -79 -30 -49 -97 -113 -147 -139 -45 -24 -61 -27 -150 -27 -86 0 -106
3 -144 23 -70 38 -135 106 -167 175 -25 53 -29 75 -29 147 0 72 4 94 29 147
41 89 128 167 216 194 14 4 59 8 100 8 60 1 86 -4 130 -25z m-9770 -1428 l0
-678 -29 -37 c-44 -55 -110 -167 -152 -256 l-38 -80 0 865 -1 865 110 0 110 0
0 -679z m9750 -191 l-1 -870 -45 94 c-24 52 -73 138 -109 192 l-65 97 0 679 0
678 110 0 110 0 0 -870z m-8437 -187 c-87 -259 -144 -514 -179 -808 -25 -202
-25 -648 0 -850 36 -295 92 -546 180 -809 l46 -134 -188 6 c-103 3 -215 10
-249 16 -570 100 -1013 556 -1109 1141 -19 115 -13 377 11 485 108 484 448
866 907 1019 138 47 260 64 460 65 l166 1 -45 -132z m7267 117 c437 -66 802
-336 1005 -743 54 -107 100 -247 122 -366 25 -136 22 -372 -6 -503 -115 -549
-518 -961 -1049 -1073 -99 -21 -482 -41 -482 -25 0 4 20 68 45 142 81 242 142
519 177 803 20 165 17 700 -5 875 -35 270 -112 601 -188 807 -16 44 -29 84
-29 89 0 14 304 11 410 -6z m983 -3655 c9 -11 31 -23 47 -27 43 -8 45 -20 6
-27 -40 -8 -61 -29 -79 -82 l-14 -39 -7 32 c-11 47 -42 81 -81 89 -35 6 -39
24 -6 24 31 0 70 39 83 82 l12 40 10 -36 c6 -20 19 -45 29 -56z m-8386 -230
c12 -10 25 -29 28 -41 14 -44 -64 -107 -103 -83 -31 20 -54 61 -47 83 10 32
45 61 75 61 14 0 36 -9 47 -20z m-989 -536 c74 -31 131 -111 132 -185 0 -19
-12 -59 -26 -87 -20 -41 -37 -59 -78 -82 -69 -40 -123 -40 -192 0 -87 49 -125
151 -88 238 43 104 156 156 252 116z m5830 -1230 c9 -7 31 -15 47 -19 l30 -6
-38 -13 c-52 -19 -65 -32 -79 -80 l-11 -41 -7 30 c-12 53 -29 74 -72 87 l-41
12 34 14 c49 20 68 40 75 81 l7 36 19 -44 c10 -24 26 -50 36 -57z m-5288 -26
c19 -9 44 -20 55 -24 16 -5 10 -9 -27 -20 -51 -16 -75 -41 -84 -91 -8 -40 -19
-35 -28 11 -7 39 -45 74 -88 83 -38 7 -35 19 5 27 40 8 73 40 83 81 11 50 16
50 33 -1 13 -39 23 -53 51 -66z m1727 27 c10 -8 31 -17 47 -21 l30 -6 -38 -13
c-21 -8 -43 -18 -48 -23 -5 -5 -15 -27 -23 -48 l-13 -38 -6 31 c-9 40 -40 72
-77 80 l-30 6 41 18 c31 14 46 29 58 57 l17 39 11 -34 c7 -19 20 -41 31 -48z"/>
<path d="M3067 7643 c-4 -75 -7 -160 -7 -190 l0 -53 195 0 195 0 0 190 0 190
-115 0 -115 0 0 -115 0 -115 35 0 35 0 0 73 c0 41 2 76 5 78 2 3 20 3 40 1
l35 -4 0 -109 0 -109 -115 0 -115 0 0 150 0 150 -33 0 -34 0 -6 -137z"/>
<path d="M2400 7180 l0 -360 40 0 40 0 0 360 0 360 -40 0 -40 0 0 -360z"/>
<path d="M3060 7170 l0 -190 190 0 190 0 0 40 0 40 -75 0 -76 0 3 113 3 112
73 -3 72 -4 0 41 0 41 -190 0 -190 0 0 -190z m154 88 c0 -16 -1 -66 -2 -113
l-2 -85 -35 0 -35 0 0 116 0 115 38 -3 c33 -3 37 -6 36 -30z"/>
<path d="M3060 6905 l0 -35 75 0 75 0 0 -115 0 -115 -75 0 -75 0 0 -40 0 -40
115 0 115 0 0 75 0 75 75 0 75 0 0 40 0 40 -75 0 -75 0 0 75 0 75 -115 0 -115
0 0 -35z"/>
<path d="M10900 7760 l0 -40 75 0 75 0 0 -155 0 -155 115 0 115 0 0 195 0 195
-190 0 -190 0 0 -40z m300 -132 c0 -51 3 -103 6 -115 6 -21 3 -23 -35 -23
l-41 0 0 115 0 115 35 0 35 0 0 -92z"/>
<path d="M11870 7181 l0 -361 45 0 45 0 -2 358 -3 357 -42 3 -43 3 0 -360z"/>
<path d="M10900 7195 l0 -175 35 0 c24 0 35 -5 35 -15 0 -12 20 -15 120 -15
113 0 120 1 120 20 0 16 7 20 35 20 l35 0 0 170 0 170 -190 0 -190 0 0 -175z
m305 -15 l0 -115 -115 0 -115 0 -3 112 -3 112 73 4 c40 2 93 3 118 3 l45 -1 0
-115z"/>
<path d="M10900 6755 l0 -195 75 0 c68 0 75 2 75 20 0 17 7 20 40 20 33 0 40
-3 40 -20 0 -18 7 -20 75 -20 l75 0 0 195 0 195 -190 0 -190 0 0 -195z m150 0
l0 -115 -35 0 -35 0 0 84 c0 46 -3 98 -6 115 -6 31 -6 31 35 31 l41 0 0 -115z
m160 0 l0 -115 -40 0 -40 0 0 115 0 115 40 0 40 0 0 -115z"/>
</g>
</svg>
